<svg width="36" height="36" xmlns="http://www.w3.org/2000/svg">
	<path d="M26.297 21.938a14.233 14.233 0 002.231-7.66C28.528 6.394 22.144 0 14.268 0 6.385 0 0 6.394 0 14.278c0 7.885 6.384 14.278 14.26 14.278 2.859 0 5.521-.844 7.752-2.287l.647-.45L32.841 36 36 32.784l-10.172-10.18.469-.666zM22.257 6.3a11.197 11.197 0 013.3 7.969c0 3.01-1.173 5.84-3.3 7.969a11.197 11.197 0 01-7.97 3.3c-3.009 0-5.84-1.172-7.968-3.3a11.197 11.197 0 01-3.3-7.97c0-3.009 1.172-5.84 3.3-7.968A11.197 11.197 0 0114.288 3c3.009 0 5.84 1.172 7.968 3.3z" fill="#FFF" fill-rule="nonzero" />
</svg>
