<svg width="26" height="23" xmlns="http://www.w3.org/2000/svg">
	<path d="M23.329 6.204c.01.23.01.458.01.687A15.182 15.182 0 01-.008 19.688c.421.05.845.075 1.27.073a10.7 10.7 0 006.627-2.289 5.335 5.335 0 01-4.984-3.704c.798.151 1.62.12 2.404-.094a5.346 5.346 0 01-4.276-5.233v-.073a5.396 5.396 0 002.413.666 5.357 5.357 0 01-1.654-7.127A15.15 15.15 0 0012.79 7.484a5.898 5.898 0 01-.135-1.217 5.336 5.336 0 019.228-3.652 10.612 10.612 0 003.392-1.29 5.368 5.368 0 01-2.351 2.955 10.811 10.811 0 003.07-.843 10.868 10.868 0 01-2.664 2.767z" fill="#262626" fill-rule="nonzero" />
</svg>
